<?xml version="1.0" encoding="UTF-8" standalone="no"?>
<svg
   version="1.1"
   id="Layer_1"
   x="0px"
   y="0px"
   width="640"
   viewBox="0 0 640 640"
   enable-background="new 0 0 992 816"
   xml:space="preserve"
   sodipodi:docname="visionxairy-icon.svg"
   height="640"
   inkscape:version="1.4.2 (ebf0e94, 2025-05-08)"
   xmlns:inkscape="http://www.inkscape.org/namespaces/inkscape"
   xmlns:sodipodi="http://sodipodi.sourceforge.net/DTD/sodipodi-0.dtd"
   xmlns="http://www.w3.org/2000/svg"
   xmlns:svg="http://www.w3.org/2000/svg"><defs
   id="defs15" /><sodipodi:namedview
   id="namedview15"
   pagecolor="#ffffff"
   bordercolor="#000000"
   borderopacity="0.25"
   inkscape:showpageshadow="2"
   inkscape:pageopacity="0.0"
   inkscape:pagecheckerboard="0"
   inkscape:deskcolor="#d1d1d1"
   inkscape:zoom="1.0112667"
   inkscape:cx="191.83861"
   inkscape:cy="363.40562"
   inkscape:window-width="2560"
   inkscape:window-height="1369"
   inkscape:window-x="-8"
   inkscape:window-y="-8"
   inkscape:window-maximized="1"
   inkscape:current-layer="Layer_1" />















<rect
   style="fill:#ffffff;stroke-width:1.70139"
   id="rect1"
   width="640"
   height="640"
   x="0"
   y="0" /><g
   id="g1"
   transform="translate(13.729859,30.914956)"><path
     fill="currentColor"
     opacity="1"
     stroke="none"
     d="m 572.72515,0 c 2.86359,0.504922 5.29285,1.040423 7.7348,1.509806 15.8191,3.040669 28.45405,15.314066 31.43775,31.131605 1.82452,9.672443 -0.37714,18.861362 -4.82483,27.542988 -8.59259,16.772388 -18.80957,32.602741 -28.40094,48.793181 -23.6908,39.99085 -48.76898,79.11589 -74.75983,117.63767 -16.01843,23.74141 -32.77612,46.98747 -49.42779,70.29457 -2.52381,3.53259 -2.79724,5.81158 -0.22534,9.53339 38.83715,56.20071 79.37469,111.16052 120.37274,165.79071 9.79816,13.05612 19.32379,26.32174 28.76288,39.64114 12.867,18.15656 10.67639,41.86353 -5.23505,55.78613 -8.67755,7.59296 -19.24597,10.20887 -30.58759,10.21253 -40.82867,0.0131 -81.67016,0.6698 -122.48095,-0.17236 -23.40204,-0.48304 -43.10651,-10.8888 -58.17487,-28.98871 -25.26398,-30.34668 -50.2417,-60.93158 -75.37622,-91.38626 -1.54962,-1.87763 -2.75229,-4.15925 -5.68722,-5.56992 -7.90232,9.54346 -15.77597,19.18079 -23.7873,28.70227 -20.47351,24.33258 -39.05459,50.26325 -61.01223,73.3266 -15.46433,16.24298 -35.00647,24.02197 -57.35883,24.13513 -40.66147,0.20581 -81.329414,0.46839 -121.984514,-0.0639 -15.71399,-0.20569 -28.69387,-7.12342 -36.2656902,-21.75562 -8.11893,-15.68933 -5.99066004,-30.77704 4.1014,-44.67676 C 29.309876,484.203 49.454746,457.25845 69.383256,430.15607 c 30.28986,-41.19358 60.062844,-82.7587 89.476234,-124.58268 1.93094,-2.74566 1.97644,-4.72555 -0.0617,-7.50705 C 124.3212,251.01556 92.004786,202.50932 60.917296,153.15874 41.286666,121.99558 22.231566,90.49678 4.5993658,58.173267 -5.1939442,40.220089 1.2750958,17.107738 18.100116,6.670716 c 6.66449,-4.134164 13.95648,-6.075694 21.83728,-6.058412 27.66325,0.060665 55.3267,0.03597 82.990094,0.015867 2.15546,-0.00157 4.31083,-0.218511 6.8462,-0.481762 C 142.17453,0 154.1954,0 167.04046,0.157353 c 10.01706,1.592099 19.18185,2.796931 27.79486,6.926905 13.69757,6.568025 23.41236,17.384236 32.50861,28.96708 25.0957,31.956017 50.13113,63.959362 75.21417,95.925382 3.55087,4.52526 4.2514,4.4942 7.70364,0.0396 C 328.9298,107.92809 347.32482,83.621605 366.35479,59.822895 376.73882,46.836742 386.34747,33.19838 398.16473,21.34841 412.20843,7.265873 428.77435,0.333688 448.79827,0.530989 485.6101,0.893704 522.42797,0.65306 559.24328,0.625559 561.88403,0.623586 564.58453,1.042901 567.15362,0 c 1.71435,0 3.42871,0 5.57153,0 M 142.65359,552.73291 c 9.82318,-0.11584 19.71017,0.43536 29.45526,-0.49677 16.49896,-1.57812 28.35181,-11.40679 38.51605,-23.70648 31.29535,-37.87027 62.64224,-75.69803 93.91229,-113.58914 1.5745,-1.9079 3.809,-3.69882 3.45215,-6.89758 -3.04504,-0.55347 -4.32028,1.72619 -6.01489,3.1094 -7.41611,6.05307 -15.85818,9.08051 -25.43948,8.27842 -17.26673,-1.44544 -27.79291,-11.41196 -33.63706,-27.10154 -0.79629,-2.13775 -1.02005,-4.44793 -4.04989,-5.03564 -11.35996,-2.20364 -19.95688,-8.71039 -26.83255,-17.76212 -9.16672,-12.06784 -18.27774,-24.17889 -27.55771,-36.15909 -2.48578,-3.20913 -4.52518,-6.86041 -7.9495,-9.60696 -0.75604,0.81775 -1.38168,1.35867 -1.8442,2.01462 -13.24256,18.78067 -26.39127,37.62802 -39.71708,56.34936 -16.80172,23.60468 -33.66326,47.16367 -51.058344,70.34366 -17.79026,23.70655 -35.1789,47.715 -52.68766,71.63205 -4.54266,6.20539 -7.28907,13.0484 -3.54713,20.50904 3.79237,7.56121 11.1422,8.12085 18.53136,8.11792 31.82278,-0.0125 63.645574,-0.004 96.468384,8.5e-4 m 313.57584,-200.34 c -6.79914,-9.59515 -13.59821,-19.1903 -20.36591,-28.74112 -2.36926,1.19864 -3.16193,2.90928 -4.23993,4.34391 -10.80591,14.37948 -21.53693,28.81576 -32.42053,43.13614 -5.26135,6.92273 -11.92798,12.5115 -20.35034,14.62957 -5.67066,1.426 -7.95514,4.42154 -9.96967,9.4502 -5.40997,13.50464 -15.19855,22.46078 -30.09851,23.66788 -6.22675,0.50445 -9.44226,3.54388 -12.80603,7.92492 -2.90845,3.788 -2.56537,6.45786 0.45361,10.00147 10.47748,12.29791 20.64502,24.85962 30.94556,37.30847 15.92798,19.25006 31,39.18906 47.7088,57.81918 12.60315,14.05243 27.63202,21.40717 46.59961,20.86689 10.65692,-0.30353 21.32971,-0.0445 31.99536,-0.0495 28.16394,-0.0132 56.328,-0.003 84.49182,-0.0676 7.63276,-0.0173 14.24243,-2.15753 17.45191,-9.94019 3.00567,-7.28863 -0.17035,-13.43506 -4.27161,-19.0617 -15.505,-21.27158 -31.00958,-42.54734 -46.82898,-63.5849 C 507.9884,424.80698 482.1303,389.02991 456.22943,352.39288 M 584.0794,51.398899 c 2.1919,-4.312801 4.55353,-8.615177 3.21112,-13.722153 -2.1767,-8.281181 -7.62005,-12.53775 -16.90002,-12.556419 -41.32892,-0.08314 -82.65833,0.03525 -123.98725,-0.03849 -11.88678,-0.02121 -21.66082,4.799188 -30.06262,12.658472 -7.56402,7.075565 -13.68554,15.467872 -20.01721,23.612644 -27.39563,35.240452 -54.64325,70.595917 -81.94946,105.905867 -5.26371,6.80655 -11.14542,13.15253 -15.70145,20.39755 7.24274,7.54994 7.24277,7.54997 14.7865,1.99953 16.48355,-12.12813 40.4014,-7.84471 51.53122,9.17468 1.3125,2.0071 2.18487,4.52356 5.00995,5.42699 0.77057,-0.63716 1.63012,-1.17401 2.27026,-1.90341 8.23883,-9.38794 16.44843,-18.80156 24.6601,-28.21332 1.77874,-2.0387 1.89801,-4.50041 1.88702,-7.05342 -0.0453,-10.49884 -0.21741,-21.00347 0.0733,-31.49442 0.12317,-4.44757 -0.96142,-7.26895 -5.06329,-9.67801 -7.90411,-4.64204 -11.80554,-14.44001 -10.15332,-23.26291 2.12085,-11.325353 10.71094,-18.435163 23.41241,-19.377882 9.25159,-0.686668 19.34443,6.510674 22.43879,16.00134 3.46521,10.628482 -0.35492,21.403112 -9.76349,27.519572 -1.22901,0.79891 -3.09046,1.20594 -3.12018,2.94255 -0.11951,6.98222 -0.0495,13.96769 -0.0495,21.79267 1.41016,-1.15185 1.98462,-1.49917 2.40411,-1.98137 13.11689,-15.07814 26.20191,-30.18416 39.34461,-45.23976 1.60315,-1.83648 1.05511,-3.58675 0.544,-5.576872 -2.58459,-10.062629 2.13703,-21.289215 11.1233,-26.689232 8.89367,-5.344368 20.06292,-4.037178 27.71588,3.243706 7.47119,7.107979 9.85467,18.520012 5.65698,27.085798 -4.87897,9.95584 -15.25031,15.51659 -25.98493,13.39334 -3.72882,-0.73755 -5.87756,0.4402 -8.14782,3.08545 -9.00196,10.48873 -18.17572,20.82991 -27.25928,31.24892 -4.62494,5.3049 -9.19342,10.65897 -14.3587,16.65378 8.27447,0.28827 14.6333,1.42885 20.16034,-6.41312 7.67382,-10.88791 25.51934,-10.31105 35.00231,-0.43039 8.91535,9.28922 7.63483,26.22702 -2.60015,34.39327 -10.59656,8.45472 -26.76172,5.89859 -34.16352,-5.5874 -1.52063,-2.35962 -3.05835,-3.58889 -5.94098,-3.53781 -8.66351,0.15353 -17.33117,0.13917 -25.99652,0.0828 -2.39569,-0.0156 -3.98791,0.93908 -5.50891,2.74901 -5.24963,6.24694 -10.82239,12.22726 -15.95294,18.56736 -2.98096,3.6837 -6.80029,6.76033 -9.21051,11.40937 7.69531,4.44685 14.41156,9.42909 19.09277,16.80026 4.10572,6.46495 8.50336,12.75388 12.97321,18.97604 6.48187,9.02294 13.1449,17.9157 20.25409,27.57527 C 489.12304,206.81415 538.64697,130.87324 584.0794,51.398899 M 195.73269,180.27161 c -34.38916,8.99458 -66.56055,2.92364 -97.315614,-14.32257 25.315184,38.70579 50.557684,77.2772 78.315064,114.6705 11.78006,-16.0322 23.19278,-31.38262 34.39759,-46.88332 6.51794,-9.01684 14.88952,-15.20174 25.73528,-17.71858 3.39274,-0.78734 5.05405,-2.55652 5.97904,-5.77716 2.88031,-10.02825 8.32886,-18.66065 17.95859,-22.86376 9.60721,-4.19328 15.45742,-11.76834 21.58059,-19.39506 2.70163,-3.36501 6.91434,-6.62258 7.42945,-10.34557 0.58801,-4.25015 -4.92658,-6.96727 -7.39661,-10.65736 -2.68054,-4.00458 -5.86163,-7.67525 -8.84613,-11.4745 -0.8071,-1.02747 -1.47015,-2.26264 -3.5975,-2.56354 -19.89981,22.33737 -44.1478,38.71724 -74.23975,47.33092 M 77.194966,88.509155 c 11.54376,-9.076759 23.587834,-17.200859 37.303504,-22.880447 31.37619,-12.992725 62.8089,-14.943401 94.64069,-1.93602 3.8308,1.565376 7.7135,3.003815 12.71344,4.943954 -7.23887,-10.23196 -14.47895,-18.707065 -21.82776,-27.066505 -10.00461,-11.380451 -22.49402,-17.180424 -37.93457,-16.590145 -10.80689,0.413135 -21.64148,0.103643 -32.46372,0.110746 -29.636144,0.01945 -59.272434,-0.01076 -88.908314,0.08531 -7.54857,0.02447 -12.61932,3.292069 -14.72452,9.668415 -1.93355,5.85648 -0.52881,11.435578 2.48838,16.742417 9.46203,16.642574 19.30847,33.053516 29.44163,49.29383 0.5936,0.95133 1.0818,2.13338 2.8577,2.11129 5.1691,-4.56628 10.52057,-9.293674 16.41354,-14.482845 m 87.455964,69.210925 c 26.56147,-0.56774 44.19843,-26.03356 36.14826,-50.05804 -5.09341,-15.200561 -18.98511,-26.191558 -35.05109,-26.639762 -16.11572,-0.449593 -32.68429,10.163223 -37.46707,24.945072 -8.93909,27.62762 10.83731,50.28402 36.3699,51.75273 m 179.11078,104.09498 c 2.03479,1.57325 3.13306,3.79093 4.39765,5.96292 1.61938,2.78153 -0.31433,7.43433 3.58392,8.59858 3.06384,0.91497 6.60034,0.25323 9.927,0.27923 1.4978,0.0117 2.99622,0.009 4.49378,-0.0154 9.35541,-0.15445 18.26837,-6.89325 20.44751,-15.45068 2.62957,-10.32634 -1.89844,-20.68019 -11.33289,-25.91401 -7.7348,-4.29089 -18.61304,-2.34233 -25.15344,4.5933 -1.82269,1.93286 -3.36627,4.12718 -5.1648,6.08497 -4.63464,5.04508 -6.44122,5.21186 -12.44519,1.36403 -4.15588,-2.66343 -4.76312,-5.56373 -2.11456,-11.25079 3.76105,-8.07591 10.29834,-13.40088 18.03864,-17.2638 3.80712,-1.89997 4.14978,-4.15367 2.28472,-7.58203 -4.22589,-7.76786 -11.95562,-11.46188 -20.51855,-9.63681 -7.60596,1.62108 -14.29157,9.21398 -14.57416,17.64371 -0.3902,11.63861 -0.12988,23.29819 -0.22833,34.94809 -0.0218,2.58371 1.11639,3.60345 3.59564,3.57523 3.99384,-0.0454 7.99011,0.0696 11.98279,-0.0102 4.46747,-0.0893 8.58478,0.86878 12.78027,4.07373 m -52.59015,-55.3416 c -10.07449,-8.85136 -22.50604,-6.68426 -28.92837,4.94849 -1.95032,3.53259 -2.05176,5.82401 2.38409,7.62582 7.79853,3.16773 13.94355,8.53301 17.53522,16.28084 2.90222,6.26053 1.68091,9.65325 -3.96643,12.8707 -5.21365,2.97038 -7.63177,2.19641 -11.91077,-3.76402 -0.97058,-1.35201 -1.98001,-2.68042 -3.03961,-3.96353 -6.52511,-7.90152 -19.12808,-9.90999 -27.60785,-4.25689 -10.39676,6.93114 -11.71921,16.05269 -9.651,25.25119 1.99579,8.87641 11.28381,15.06238 21.1774,15.20353 3.66415,0.0523 7.33105,-0.0814 10.99496,-0.0227 2.87076,0.046 4.36817,-0.81717 5.03003,-4.05359 2.0029,-9.79388 7.32035,-14.15167 17.31818,-14.72015 3.82022,-0.21716 7.66714,-0.22571 11.49017,-0.0593 3.87351,0.16858 5.26465,-1.37677 5.17652,-5.29013 -0.23633,-10.49115 -0.27115,-20.99171 -0.11988,-31.48471 0.0794,-5.5045 -1.67151,-10.09527 -5.88266,-14.56554 m 54.30756,175.82738 c -6.9137,-4.30014 -12.94952,-9.4368 -15.8855,-17.34414 -1.79095,-4.82343 -0.31787,-8.60398 4.03223,-10.99488 4.2887,-2.35711 8.4245,-1.55118 11.45758,2.4523 2.11731,2.79471 4.20404,5.58454 6.93848,7.82206 6.72888,5.50595 17.84436,6.22702 24.8095,1.59771 9.1023,-6.04977 12.48676,-14.68408 9.58814,-24.46103 -2.82306,-9.52188 -10.47314,-15.34652 -20.27301,-15.40655 -3.99725,-0.0245 -7.99725,0.0873 -11.99127,-0.0272 -2.71912,-0.078 -4.04767,0.80041 -4.80029,3.68991 -2.45734,9.43387 -9.19465,14.505 -18.87153,14.7008 -3.66327,0.0742 -7.32879,0.0836 -10.99273,0.0535 -2.58399,-0.0212 -4.11945,0.91049 -4.09668,3.75583 0.0933,11.65765 -0.36554,23.34839 0.38348,34.96213 0.5094,7.89853 4.64154,14.15133 12.81848,16.79519 7.68878,2.48609 14.07904,0.44535 19.40253,-5.41867 5.36145,-5.90585 4.98004,-8.23517 -2.51941,-12.17694 m -111.7009,-52.25373 c -0.95446,0.92395 -1.97763,1.78745 -2.85241,2.78152 -6.30616,7.16587 -7.48249,16.10859 -3.27335,24.57001 3.96597,7.97263 11.99948,12.2659 21.4985,11.43653 6.50629,-0.56809 11.62012,-3.72034 15.73783,-8.65369 1.38495,-1.65924 2.60434,-3.48825 4.15716,-4.96945 3.44388,-3.2851 7.36216,-2.87811 10.99811,-0.51981 3.59601,2.33243 5.0029,5.80454 3.19885,9.95731 -3.82781,8.81134 -10.67831,14.65228 -19.0065,19.01105 -1.98263,1.03765 -4.41491,1.6723 -3.11343,5.08331 2.89215,7.5798 12.1792,13.12365 20.56635,11.95636 7.99954,-1.11334 14.99075,-8.53351 15.16299,-16.80881 0.24576,-11.81064 0.006,-23.63068 0.0914,-35.44586 0.0216,-2.99436 -1.13586,-4.20877 -4.13248,-4.12076 -4.15625,0.1221 -8.33938,0.25098 -12.47576,-0.073 -7.46985,-0.58502 -14.34113,-3.44854 -15.96561,-11.21466 -1.40939,-6.73782 -4.73139,-7.73132 -10.37067,-7.09027 -2.95764,0.33627 -5.98483,0.0311 -8.9797,0.0762 -3.92527,0.0591 -7.57395,1.0036 -11.24131,4.02405 m 79.87339,-53.80694 c -9.16642,0.013 -18.33344,0.0928 -27.49887,0.003 -3.30536,-0.0322 -4.90729,1.10981 -4.88489,4.62415 0.0859,13.49896 0.0743,26.99902 -0.004,40.49811 -0.0187,3.22525 1.38733,4.4783 4.51422,4.46389 13.66571,-0.063 27.33191,-0.0809 40.99756,-0.0274 3.18018,0.0125 4.44214,-1.31363 4.45117,-4.49512 0.0385,-13.49509 0.21295,-26.98981 0.34302,-40.48459 0.0322,-3.33395 -1.49133,-4.78524 -4.92218,-4.61725 -3.99011,0.19541 -7.99744,0.0387 -12.99609,0.0348 m -106.07724,3.7218 c -4.57816,6.12002 -9.05222,12.32214 -13.78336,18.32153 -2.02435,2.56702 -1.8949,4.63654 0.0252,7.06757 3.50119,4.4328 6.82455,9.00598 10.3219,13.44195 2.11453,2.6821 3.87298,5.74066 6.70468,7.58811 0.67315,-0.34751 1.02765,-0.43345 1.23776,-0.6558 0.9122,-0.96524 1.81915,-1.93991 2.6619,-2.96551 8.58175,-10.44416 19.49789,-15.68363 33.13531,-15.17691 3.97351,0.14761 7.96634,-0.27286 11.95178,-0.37473 1.42731,-0.0365 2.47937,-0.20987 2.97165,-1.91473 2.0271,-7.01999 -0.27716,-10.3082 -7.40475,-10.34241 -2.82627,-0.0136 -5.65317,-0.0938 -8.47858,-0.0548 -13.83108,0.19055 -24.6947,-5.55798 -33.05911,-16.39371 -0.77896,-1.00912 -1.39652,-2.30453 -3.11923,-2.49252 -0.89209,1.09265 -1.8284,2.2395 -3.16516,3.952 m 199.44064,2.66766 c -2.15601,-2.1456 -3.12799,-5.41449 -6.7237,-7.16895 -11.43731,19.55829 -30.3709,20.68497 -50.12158,19.47068 0,4.50348 0,8.08777 0,11.96255 9.71241,0.97891 19.47364,-1.13379 28.80567,2.32199 9.51153,3.52222 16.78802,9.75363 22.60601,18.4957 6.24628,-8.18515 12.05665,-15.86136 17.94642,-23.47607 1.60425,-2.0741 0.70813,-3.58127 -0.58344,-5.31086 -3.88562,-5.20349 -7.6676,-10.48443 -11.92938,-16.29504 M 115.1444,84.677765 c -15.963714,7.449844 -29.232024,18.416205 -41.084534,31.285125 -2.53079,2.7478 -2.71509,4.8448 0.0906,7.55933 10.93682,10.58157 22.44256,20.41491 35.863494,27.74304 3.05026,1.6655 6.02844,3.8649 10.30267,3.99933 -16.0588,-23.87809 -16.42965,-47.52539 -0.7286,-71.087176 -1.72672,-0.926483 -2.72953,-0.07243 -4.44361,0.500351 m 113.09357,60.891185 c 9.19684,-7.10987 18.88458,-13.60756 26.57486,-22.54221 2.40845,-2.79818 2.1937,-4.70698 -0.12332,-7.23855 -10.55197,-11.52919 -22.94477,-20.686551 -36.39841,-28.478742 -3.04791,-1.765327 -6.07562,-3.711181 -10.09552,-4.592674 16.15369,24.316856 16.59198,48.404246 0.13129,73.514136 7.9006,-2.91316 13.66672,-6.47592 19.9111,-10.66196 m 186.51642,-39.83409 c -2.25311,-5.32502 -5.56677,-7.395321 -9.64642,-6.02685 -3.78437,1.26939 -5.71509,5.05864 -4.59888,9.18651 0.93323,3.45122 3.28985,5.42552 6.8244,5.33136 4.84589,-0.12913 6.75555,-3.43744 7.4209,-8.49102 m 43.98474,72.96727 c 2.77777,4.23992 7.28912,5.55019 10.83813,3.14785 3.52588,-2.38671 4.17884,-7.08519 1.40381,-10.44265 -2.21801,-2.68342 -5.19665,-2.84622 -8.15484,-1.88507 -4.06458,1.32062 -4.79053,4.62059 -4.0871,9.17987 m 30.01251,-86.952069 c -0.17859,-1.954826 -1.29553,-3.40937 -2.73175,-4.549103 -2.367,-1.878364 -5.02112,-2.613067 -7.80652,-0.931045 -2.79699,1.688972 -4.23504,4.214531 -3.62439,7.518013 0.61652,3.33554 2.97095,5.364184 6.15052,5.576294 4.61877,0.30813 7.39843,-2.194542 8.01214,-7.614159 z"
     id="path1" /><path
     fill="currentColor"
     opacity="1"
     stroke="none"
     d="m 148.43426,134.71188 c -6.134,-7.09639 -8.53055,-14.75166 -4.91,-23.37849 3.55944,-8.48116 10.10003,-13.464417 19.26413,-14.77485 5.25167,-0.750961 5.98828,0.201226 4.29763,5.09608 -1.52563,4.41713 -1.2922,8.61167 2.2258,12.02003 3.48795,3.37927 7.59491,3.8043 12.00519,1.87343 1.18784,-0.52004 2.29236,-1.43561 3.74158,-0.97789 3.32672,6.63558 0.41836,16.22734 -6.65656,21.96454 -8.55224,6.93518 -20.16021,6.32506 -29.96777,-1.82285 z"
     id="path15" /></g></svg>
